<svg width="219" height="167" viewBox="0 0 219 167" fill="none" xmlns="http://www.w3.org/2000/svg">
<path d="M120.267 116.664C119.37 116.603 118.478 116.465 117.6 116.25C116.098 115.768 114.595 115.684 113.995 117.432C113.672 118.328 114.318 119.663 114.611 121.234C114.16 121.234 113.251 121.606 112.582 121.293C110.111 120.136 109.225 121.293 109.217 124.14C107.077 124.326 105.304 124.985 105.026 127.866C104.981 128.364 103.854 129.066 103.201 129.099C98.3109 129.395 97.9428 129.767 97.8151 134.675L95.3814 133.171L95.1185 136.635C93.4811 137.48 92.4295 132.656 90.2286 135.452C88.2381 133.112 86.6082 133.273 81.6807 136.373C82.1764 135.452 82.537 134.785 82.9426 134.05C80.8695 132.082 80.0583 135.19 78.0452 135.478C82.1614 130.933 79.7127 127.342 77.7973 123.447C77.1889 122.223 77.6246 120.161 77.9626 118.59C78.3457 116.833 79.3297 115.211 79.7353 113.479C80.3662 110.775 80.7193 107.996 81.3352 104.414L83.5886 107.278C84.9754 105.928 86.2897 104.486 87.5245 102.961C87.9752 102.352 87.7799 101.144 87.8325 100.697L77.91 99.8517L77.8349 100.376C78.1224 100.477 78.4014 100.607 78.6687 100.764C78.9529 101.019 79.2168 101.302 79.4573 101.609L77.0762 103.223C76.0622 99.8433 76.3251 95.3996 72.0286 94.6054C71.608 94.5294 71.1122 94.9687 70.669 95.163C67.8673 92.7975 65.1933 89.8238 61.4301 88.1933C62.4666 86.6895 63.7736 85.6588 61.7305 84.1888C61.1146 83.758 61.3249 81.8318 61.1522 80.5815L60.0029 79.9648C59.6686 80.5964 59.3917 81.2644 59.1767 81.9585C58.373 85.6335 55.7064 87.585 53.483 89.9674C52.2812 91.2515 51.3799 91.3444 50.1931 89.8914C49.149 88.6072 47.5491 87.8469 46.6703 86.5121C44.9802 83.8763 42.524 81.0123 42.4188 78.1568C42.2761 74.3214 44.4769 70.6887 47.7519 68.5259C50.5386 66.6927 53.1526 67.2756 55.4961 69.5313C57.6293 71.5842 59.6649 73.7553 61.8582 76.0363C60.8292 73.0288 63.3605 71.9812 64.7801 70.1226C65.1106 69.6833 65.0881 68.9061 65.5313 68.8301L69.6175 66.0253C70.0832 65.9323 70.992 65.7211 71.9159 65.6029C72.8398 65.4846 73.9891 65.1213 74.8829 65.417C76.5121 65.9867 78.0812 66.7544 79.5625 67.7065C80.3963 68.2218 80.9521 69.2863 81.7558 69.8776C83.7689 71.3561 84.6101 73.7216 85.7293 75.9096C85.9021 76.2476 86.6007 76.256 86.3603 76.1715C87.1114 78.1399 87.6147 79.5508 88.1705 81.0461L90.1686 79.9225L90.7544 81.7896L95.3364 84.645L98.8742 81.4263H96.5682C96.5682 78.7313 96.5682 76.1377 96.5682 73.5441C96.4911 72.843 96.5345 72.1317 96.6959 71.449C97.5147 69.4637 98.4085 67.5121 99.3925 65.6282C100.376 63.7443 101.15 61.4041 103.516 60.9395C103.674 60.9395 103.922 60.8381 103.952 60.7198C104.936 57.4757 108.023 57.7714 110.006 56.2169C110.434 55.879 111.328 56.3099 112.124 56.3943L113.476 50.4806C115.226 51.8239 117.555 51.7816 117.593 54.7047C118.297 54.8249 119.007 54.9039 119.718 54.9413C119.816 55.1863 120.139 56.0564 120.544 57.1378C123.016 55.5495 125.712 54.7554 126.193 52.0689L132.397 47L134.11 47.49C134.861 46.2903 135.364 44.8626 136.296 44.0178C138.624 41.9057 137.445 40.2583 136.236 38.1885C135.252 36.4989 134.809 34.4544 134.125 32.5705L135.237 32.0636L137.888 38.5096C139.39 39.4135 140.637 40.1992 141.892 40.8413C142.545 41.1792 143.544 41.779 143.92 41.4918C146.654 39.4051 150.507 39.3797 152.34 35.578C152.936 34.3681 153.696 33.2707 154.593 32.3255C155.991 30.9437 156.877 29.024 157.08 26.944C157.681 21.9427 158.792 17.0174 159.769 12.0837C159.992 11.3214 160.341 10.6134 160.798 9.99699C160.865 9.88716 161.617 10.0984 161.624 10.1998C161.779 11.0527 161.779 11.932 161.624 12.7849C160.167 17.3047 158.747 21.7906 159.686 26.7497C159.725 27.1068 159.694 27.4692 159.594 27.8109C159.494 28.1527 159.328 28.4654 159.108 28.7266C156.712 31.2103 156.689 34.7079 155.931 37.876C155.803 38.4251 156.426 39.2023 157.042 39.7261C156.171 44.1361 159.859 44.5585 161.804 46.6452L164.478 44.5585C164.216 46.5015 162.022 48.1405 164.178 49.771C165.515 50.7848 166.927 51.6718 168.625 52.8377C168.219 54.3752 169.113 55.3299 171.261 55.0342C171.727 58.7514 172.583 62.1729 175.768 63.4824C174.855 64.5362 174.014 65.6658 173.252 66.8616C173.101 67.1404 173.89 68.0697 174.536 69.2102C174.123 72.7754 174.589 74.7353 177.713 74.5495C176.061 76.4334 176.159 77.5232 178.66 80.0154C179.088 77.5486 179.456 75.445 179.802 73.4428H191.114V73.6033L183.685 74.9634C180.943 75.4788 179.704 78.4272 180.207 81.4685C180.56 83.5806 181.079 85.0252 182.964 85.135C184.441 85.2064 185.917 84.9627 187.313 84.4169C191.917 82.5837 196.454 80.5646 201.171 78.8918C200.023 79.4535 198.9 80.0794 197.806 80.7673C195.207 82.6175 192.548 84.4169 190.152 86.5374C188.763 87.7624 185.961 88.3538 184.534 87.095C182.28 85.1266 181.251 85.5574 180.523 88.5228C180.365 89.1479 179.501 89.6464 178.878 90.0265C177.375 90.9305 175.776 91.5979 174.371 92.637C173.747 93.0932 173.522 94.2253 172.981 95.3235L177.871 95.8135V96.4218H174.198C174.913 97.8062 175.698 99.1432 176.549 100.426C177.511 101.693 177.383 102.547 176.091 103.231C174.1 104.295 173.304 105.934 173.838 108.427C173.943 108.917 173.394 109.592 173.139 110.184C172.944 110.649 172.583 111.088 172.553 111.561C172.613 112.715 172.444 113.869 172.057 114.94C172.523 115.692 172.989 116.444 173.883 117.863L170.765 117.263C170.457 119.24 169.631 121.293 172.215 122.223C172.358 122.31 172.47 122.45 172.531 122.62C173.319 124.377 174.108 126.142 175.054 128.28C173.5 127.3 171.825 126.59 170.503 125.331C168.858 123.819 167.303 124.791 165.913 125.331C165.23 125.61 164.997 127.308 164.651 128.153C163.697 127.807 162.45 126.962 161.234 127.013C159.326 127.097 157.478 127.663 155.562 126.742C155.277 126.607 154.503 127.545 154.06 128.086C153.354 128.93 152.731 129.843 152.07 130.73C151.484 129.539 150.845 128.373 150.35 127.139C150.252 126.53 150.252 125.907 150.35 125.298C147.999 125.171 148.457 123.186 148.494 122.096C146.594 119.789 144.303 118.1 143.657 115.819C143.251 114.425 142.981 112.659 142.08 111.941C140.885 110.986 139.173 110.716 137.648 110.547C137.317 110.547 136.701 112.076 136.454 112.989C135.965 114.822 134.779 114.906 131.947 112.921L135.184 110.758C134.936 110.082 134.673 109.398 134.508 108.967C135.252 108.815 135.97 108.53 136.634 108.123C136.807 107.954 136.341 106.898 136.168 106.255C135.515 106.576 134.666 106.712 134.238 107.252C132.968 108.824 131.857 110.556 130.64 112.321C129.821 110.885 129.536 107.954 127.327 108.689C126.576 106.154 125.93 103.915 125.232 101.651C125.021 100.975 124.39 100.283 124.48 99.6997C124.939 96.6668 122.595 96.954 121.243 96.1346C120.988 95.9825 120.237 96.3458 120.034 96.7006C119.012 98.5338 118.329 100.697 117.029 102.217C116.376 102.986 114.686 102.631 112.898 102.859C113.086 103.704 113.018 105.588 113.732 106.112C114.596 106.754 116.12 106.264 117.72 106.264C116.383 107.185 114.836 107.683 114.43 108.731C114.145 109.483 115.317 111.046 116 112.11C116.779 113.282 117.638 114.383 118.569 115.405C119.095 115.921 119.657 116.387 120.252 116.799L120.267 116.664Z" fill="white"/>
<path d="M87.0588 60.9252C85.1134 60.9252 83.2205 60.9843 81.3277 60.9252C78.924 60.8238 74.1543 56.38 74.6726 53.9216C75.1533 51.6491 77.1138 49.5624 78.8189 47.915C80.1258 46.6477 81.6206 47.4419 83.3257 48.4303C87.2391 50.6691 88.2156 53.4316 86.6232 57.8669C86.3302 58.7624 86.9311 60.0888 87.0588 60.9252Z" fill="white"/>
<path d="M183.234 88.2296C184.128 86.0753 185.322 84.5547 187.741 84.3688C189.048 84.2674 190.31 83.3043 191.594 82.6792C192.428 82.299 193.254 81.885 194.088 81.4795C194.186 81.7245 194.283 81.9611 194.374 82.1976L183.662 88.8801L183.234 88.2296Z" fill="white"/>
<path d="M128.634 29.4641C129.18 23.4546 129.718 17.4339 130.249 11.4019L131.226 11.5033C130.67 17.4958 130.111 23.4856 129.551 29.4725L128.634 29.4641Z" fill="white"/>
<path d="M112.815 17.0707C112.958 14.4856 113.018 11.892 113.303 9.3322C113.371 8.75773 114.22 8.29308 114.7 7.77774C114.933 8.47894 115.452 9.27307 115.346 9.86444C114.791 12.3398 114.039 14.7644 113.363 17.1974L112.815 17.0707Z" fill="white"/>
<path d="M168.512 140C167.618 138.234 166.852 137.17 166.596 135.97C166.514 135.582 167.761 134.83 168.407 134.281C169.078 135.216 169.632 136.25 170.052 137.356C170.202 137.829 169.346 138.648 168.512 140Z" fill="white"/>
<path d="M120.214 111.994C123.857 111.994 126.726 114.14 129.641 116.151L129.265 117.088L120.252 111.927L120.214 111.994Z" fill="white"/>
<path d="M147.803 136.857L149.178 126.72L149.996 126.863L148.306 136.95L147.803 136.857Z" fill="white"/>
<path d="M131.977 112.138L128.702 113.295C128.612 112.805 128.349 111.944 128.446 111.884C129.423 111.327 130.459 110.913 131.451 110.448L131.977 112.138Z" fill="white"/>
<path d="M191.046 62.6909L196.65 58.1796C196.762 58.357 196.882 58.5259 196.995 58.6949L191.557 63.4512L191.046 62.6909Z" fill="white"/>
<path d="M180.793 101.654L177.578 100.344C178.585 99.4996 179.418 98.528 179.636 98.6548C180.325 99.2666 180.93 99.9897 181.431 100.801L180.793 101.654Z" fill="white"/>
<path d="M113.002 85.1871C111.826 85.1399 110.658 85.0317 109.508 84.8633C107.54 84.4865 105.572 84.4204 104.784 85.7886C104.361 86.4892 105.208 87.5335 105.591 88.7628C105.001 88.7628 103.81 89.0537 102.934 88.8091C99.6965 87.9036 98.5352 88.8091 98.5254 91.0365C95.7207 91.1819 93.3982 91.6974 93.0341 93.9513C92.975 94.3412 91.4989 94.8898 90.6427 94.9162C84.2361 95.1476 83.7539 95.4384 83.5866 99.2785L80.3981 98.102L80.0537 100.812C77.9083 101.473 76.5306 97.6988 73.6471 99.8866C71.0392 98.0557 68.9037 98.1813 62.448 100.607C63.0975 99.8866 63.5698 99.3644 64.1012 98.7894C61.3851 97.2494 60.3223 99.6817 57.6849 99.9064C63.0778 96.3505 59.8696 93.5415 57.3601 90.4945C56.563 89.5362 57.1338 87.9234 57.5766 86.6941C58.0785 85.3193 59.3677 84.0503 59.8991 82.6954C60.7258 80.5803 61.1883 78.4058 61.9953 75.6034L64.9476 77.844C66.7645 76.7877 68.4864 75.6599 70.1043 74.4666C70.6948 73.9907 70.4389 73.0456 70.5078 72.6953L57.5077 72.0343L57.4093 72.4441C57.7861 72.5237 58.1516 72.6254 58.5017 72.7481C58.8741 72.9479 59.2198 73.169 59.535 73.4091L56.4154 74.6715C55.0868 72.0277 55.4313 68.5511 49.8022 67.9298C49.2511 67.8704 48.6015 68.2141 48.0209 68.3661C44.3502 66.5154 40.8468 64.1889 35.9164 62.9133C37.2745 61.7368 38.9868 60.9304 36.31 59.7804C35.5031 59.4433 35.7786 57.9364 35.5523 56.9582L34.0466 56.4757C33.6085 56.9698 33.2458 57.4924 32.9641 58.0355C31.9111 60.9106 28.4175 62.4374 25.5045 64.3013C23.9299 65.3059 22.749 65.3786 21.1941 64.2418C19.8262 63.2371 17.7301 62.6423 16.5787 61.598C14.3644 59.5358 11.1464 57.2952 11.0086 55.0612C10.8216 52.0606 13.7051 49.2185 17.9958 47.5265C21.6468 46.0922 25.0715 46.5483 28.1419 48.313C30.9368 49.9191 33.6037 51.6177 36.4773 53.4023C35.1291 51.0493 38.4455 50.2297 40.3055 48.7757C40.7385 48.432 40.709 47.8239 41.2896 47.7644L46.6432 45.5701C47.2533 45.4974 48.4441 45.3321 49.6545 45.2396C50.865 45.1471 52.3707 44.8629 53.5418 45.0942C55.6763 45.5399 57.7321 46.1405 59.6728 46.8853C60.7651 47.2885 61.4934 48.1213 62.5464 48.584C65.1838 49.7406 66.286 51.5913 67.7523 53.3031C67.9787 53.5675 68.8939 53.5741 68.579 53.508C69.5631 55.048 70.2224 56.1518 70.9507 57.3217L73.5684 56.4426L74.336 57.9033L80.3391 60.1373L84.9742 57.6191H81.953C81.953 55.5107 81.953 53.4816 81.953 51.4525C81.852 50.9039 81.9088 50.3475 82.1203 49.8133C83.193 48.2601 84.3641 46.7333 85.6533 45.2594C86.9424 43.7855 87.9561 41.9547 91.056 41.5912C91.2627 41.5912 91.5874 41.5119 91.6268 41.4193C92.916 38.8813 96.9607 39.1126 99.5587 37.8965C100.12 37.6321 101.291 37.9692 102.334 38.0353L104.105 33.4087C106.398 34.4596 109.449 34.4265 109.498 36.7134C110.421 36.8075 111.351 36.8692 112.283 36.8985C112.411 37.0901 112.834 37.7709 113.366 38.6169C116.603 37.3744 120.136 36.7531 120.766 34.6513L128.895 30.6856L131.139 31.0689C132.123 30.1304 132.782 29.0134 134.003 28.3524C137.053 26.7001 135.508 25.4112 133.924 23.7919C132.635 22.47 132.054 20.8705 131.158 19.3966L132.615 19.0001L136.089 24.0431C138.057 24.7503 139.691 25.365 141.334 25.8673C142.19 26.1317 143.499 26.6009 143.991 26.3762C147.573 24.7437 152.622 24.7238 155.023 21.7496C155.803 20.803 156.799 19.9444 157.975 19.205C159.806 18.1239 160.968 16.622 161.233 14.9947C162.02 11.0819 163.477 7.22864 164.756 3.36871C165.048 2.77236 165.506 2.21846 166.104 1.73618C166.193 1.65025 167.177 1.81549 167.187 1.89481C167.389 2.56211 167.389 3.25 167.187 3.9173C165.277 7.45336 163.418 10.963 164.648 14.8427C164.699 15.1221 164.657 15.4056 164.526 15.673C164.395 15.9403 164.178 16.185 163.89 16.3893C160.751 18.3325 160.721 21.0688 159.727 23.5474C159.56 23.977 160.377 24.5851 161.184 24.9948C160.042 28.445 164.874 28.7755 167.423 30.408L170.926 28.7754C170.582 30.2956 167.708 31.5779 170.533 32.8535C172.284 33.6466 174.134 34.3406 176.359 35.2527C175.827 36.4556 176.998 37.2025 179.813 36.9712C180.423 39.8793 181.545 42.5562 185.717 43.5806C184.521 44.4051 183.419 45.2889 182.421 46.2244C182.224 46.4425 183.257 47.1696 184.104 48.0618C183.562 50.851 184.172 52.3844 188.266 52.239C186.101 53.7129 186.229 54.5655 189.506 56.5153C190.067 54.5854 190.549 52.9396 191.002 51.3732L205.823 51.3732V51.4987L196.09 52.5629C192.498 52.966 190.874 55.2727 191.534 57.6521C191.996 59.3045 192.675 60.4347 195.145 60.5207C197.08 60.5765 199.014 60.3858 200.843 59.9588C206.876 58.5246 212.82 56.9449 219 55.6363C217.495 56.0757 216.023 56.5654 214.591 57.1036C211.186 58.551 207.702 59.9588 204.563 61.6178C202.743 62.5762 199.072 63.0389 197.202 62.054C194.25 60.514 192.901 60.8511 191.947 63.171C191.74 63.6601 190.608 64.0501 189.792 64.3475C187.823 65.0547 185.727 65.5769 183.887 66.3898C183.07 66.7468 182.775 67.6324 182.066 68.4917L188.473 68.875V69.3509L183.661 69.3509C184.597 70.434 185.626 71.48 186.741 72.4838C188.001 73.4752 187.833 74.1427 186.141 74.6781C183.533 75.5109 182.49 76.7931 183.188 78.7429C183.326 79.1263 182.608 79.655 182.273 80.1177C182.017 80.4812 181.545 80.8249 181.505 81.195C181.584 82.0978 181.362 83.0009 180.856 83.8388C181.466 84.427 182.076 85.0153 183.247 86.1257L179.163 85.6564C178.76 87.203 177.677 88.8091 181.063 89.5362C181.25 89.6042 181.396 89.7141 181.476 89.8468C182.509 91.2216 183.543 92.6029 184.783 94.2751C182.745 93.5084 180.551 92.9532 178.819 91.9684C176.664 90.7853 174.627 91.5454 172.806 91.9684C171.91 92.1865 171.605 93.515 171.153 94.176C169.903 93.905 168.269 93.2441 166.675 93.2837C164.175 93.3498 161.754 93.7926 159.245 93.0722C158.871 92.9665 157.857 93.7001 157.277 94.1231C156.352 94.7841 155.535 95.4979 154.669 96.1919C153.901 95.2599 153.065 94.3478 152.415 93.3829C152.287 92.9064 152.287 92.4184 152.415 91.942C149.335 91.8429 149.935 90.2896 149.984 89.437C147.495 87.6326 144.493 86.3107 143.647 84.5262C143.115 83.4356 142.761 82.0542 141.58 81.4924C140.015 80.7456 137.772 80.5341 135.774 80.4019C135.341 80.4019 134.534 81.5982 134.209 82.312C133.57 83.7463 132.015 83.8124 128.305 82.2591L132.546 80.5671C132.221 80.0384 131.877 79.503 131.66 79.1659C132.635 79.0468 133.575 78.8236 134.445 78.505C134.672 78.3728 134.062 77.5466 133.835 77.0443C132.979 77.2954 131.867 77.4012 131.306 77.8242C129.643 79.0536 128.186 80.4085 126.592 81.7899C125.52 80.6663 125.146 78.3728 122.252 78.9478C121.268 76.965 120.422 75.2135 119.507 73.4421C119.231 72.9134 118.404 72.3714 118.522 71.9154C119.123 69.5426 116.052 69.7673 114.281 69.1262C113.946 69.0072 112.962 69.2914 112.697 69.569C111.358 71.0032 110.463 72.6953 108.76 73.885C107.904 74.4864 105.69 74.2088 103.348 74.3873C103.594 75.0482 103.505 76.5221 104.44 76.9319C105.572 77.4342 107.569 77.0509 109.666 77.0509C107.914 77.7713 105.887 78.1613 105.355 78.9809C104.981 79.5691 106.516 80.7918 107.412 81.6246C108.432 82.5414 109.557 83.4032 110.778 84.2023C111.466 84.6062 112.204 84.9709 112.982 85.2929L113.002 85.1871Z" fill="white"/>
<path d="M69.4941 41.58C66.9453 41.58 64.4653 41.6263 61.9854 41.58C58.8362 41.5007 52.5871 38.0241 53.2662 36.1007C53.896 34.3228 56.4645 32.6903 58.6984 31.4014C60.4108 30.41 62.3692 31.0313 64.6031 31.8046C69.7303 33.5561 71.0097 35.7174 68.9233 39.1874C68.5395 39.888 69.3268 40.9257 69.4941 41.58Z" fill="white"/>
<path d="M195.499 62.9418C196.671 61.2563 198.235 60.0666 201.404 59.9212C203.116 59.8419 204.77 59.0884 206.453 58.5993C207.545 58.3019 208.627 57.9781 209.72 57.6608C209.848 57.8525 209.976 58.0375 210.094 58.2226L196.06 63.4507L195.499 62.9418Z" fill="white"/>
<path d="M123.965 16.9664C124.68 12.2648 125.385 7.55449 126.08 2.83534L127.36 2.91466C126.631 7.60297 125.9 12.2891 125.165 16.973L123.965 16.9664Z" fill="white"/>
<path d="M103.239 7.27037C103.426 5.24788 103.505 3.21877 103.879 1.21611C103.967 0.766664 105.079 0.403147 105.709 -2.98482e-05C106.014 0.548555 106.693 1.16984 106.556 1.63251C105.827 3.56908 104.843 5.46598 103.957 7.36951L103.239 7.27037Z" fill="white"/>
<path d="M176.211 103.444C175.04 102.063 174.036 101.23 173.701 100.292C173.593 99.9877 175.227 99.3995 176.073 98.9699C176.953 99.7014 177.678 100.511 178.228 101.376C178.425 101.746 177.303 102.387 176.211 103.444Z" fill="white"/>
<path d="M112.933 81.534C117.706 81.534 121.465 83.2128 125.283 84.7859L124.791 85.5195L112.982 81.4812L112.933 81.534Z" fill="white"/>
<path d="M149.079 100.986L150.88 93.0545L151.953 93.1668L149.738 101.059L149.079 100.986Z" fill="white"/>
<path d="M128.344 81.6464L124.053 82.5519C123.935 82.1686 123.591 81.4944 123.719 81.4481C124.998 81.0119 126.356 80.688 127.655 80.3245L128.344 81.6464Z" fill="white"/>
<path d="M205.734 42.9614L213.076 39.432C213.223 39.5708 213.381 39.703 213.528 39.8351L206.403 43.5563L205.734 42.9614Z" fill="white"/>
<path d="M192.301 73.4442L188.089 72.4198C189.408 71.7588 190.5 70.9987 190.785 71.0979C191.688 71.5766 192.481 72.1423 193.137 72.7767L192.301 73.4442Z" fill="white"/>
<path d="M105.998 81.2573C107.174 81.3045 108.342 81.4128 109.492 81.5812C111.46 81.9579 113.428 82.024 114.216 80.6559C114.639 79.9553 113.793 78.911 113.409 77.6816C113.999 77.6816 115.19 77.3908 116.066 77.6353C119.304 78.5408 120.465 77.6353 120.475 75.408C123.279 75.2626 125.602 74.747 125.966 72.4932C126.025 72.1032 127.501 71.5546 128.357 71.5282C134.764 71.2969 135.246 71.0061 135.413 67.166L138.602 68.3425L138.946 65.6326C141.092 64.9716 142.469 68.7456 145.353 66.5579C147.961 68.3887 150.096 68.2631 156.552 65.8375C155.903 66.5579 155.43 67.08 154.899 67.6551C157.615 69.1951 158.678 66.7628 161.315 66.5381C155.922 70.094 159.13 72.903 161.64 75.9499C162.437 76.9083 161.866 78.521 161.423 79.7504C160.921 81.1251 159.632 82.3942 159.101 83.7491C158.274 85.8641 157.812 88.0386 157.005 90.841L154.052 88.6004C152.236 89.6567 150.514 90.7845 148.896 91.9779C148.305 92.4537 148.561 93.3989 148.492 93.7492L161.492 94.4101L161.591 94.0003C161.214 93.9208 160.848 93.819 160.498 93.6963C160.126 93.4966 159.78 93.2754 159.465 93.0354L162.585 91.773C163.913 94.4167 163.569 97.8933 169.198 98.5146C169.749 98.5741 170.398 98.2304 170.979 98.0784C174.65 99.929 178.153 102.256 183.084 103.531C181.726 104.708 180.013 105.514 182.69 106.664C183.497 107.001 183.221 108.508 183.448 109.486L184.953 109.969C185.392 109.475 185.754 108.952 186.036 108.409C187.089 105.534 190.583 104.007 193.496 102.143C195.07 101.139 196.251 101.066 197.806 102.203C199.174 103.207 201.27 103.802 202.421 104.846C204.636 106.909 207.854 109.149 207.991 111.383C208.178 114.384 205.295 117.226 201.004 118.918C197.353 120.352 193.929 119.896 190.858 118.131C188.063 116.525 185.396 114.827 182.523 113.042C183.871 115.395 180.554 116.215 178.695 117.669C178.262 118.012 178.291 118.621 177.71 118.68L172.357 120.874C171.747 120.947 170.556 121.112 169.345 121.205C168.135 121.297 166.629 121.582 165.458 121.35C163.324 120.905 161.268 120.304 159.327 119.559C158.235 119.156 157.507 118.323 156.454 117.86C153.816 116.704 152.714 114.853 151.248 113.141C151.021 112.877 150.106 112.87 150.421 112.936C149.437 111.396 148.778 110.293 148.049 109.123L145.432 110.002L144.664 108.541L138.661 106.307L134.026 108.825H137.047C137.047 110.934 137.047 112.963 137.047 114.992C137.148 115.541 137.091 116.097 136.88 116.631C135.807 118.184 134.636 119.711 133.347 121.185C132.058 122.659 131.044 124.49 127.944 124.853C127.737 124.853 127.413 124.933 127.373 125.025C126.084 127.563 122.039 127.332 119.441 128.548C118.88 128.812 117.709 128.475 116.666 128.409L114.895 133.036C112.602 131.985 109.551 132.018 109.502 129.731C108.579 129.637 107.649 129.575 106.717 129.546C106.589 129.354 106.166 128.674 105.634 127.828C102.397 129.07 98.8636 129.691 98.2338 131.793L90.105 135.759L87.8612 135.376C86.8771 136.314 86.2178 137.431 84.9975 138.092C81.9468 139.744 83.4918 141.033 85.0762 142.653C86.3654 143.974 86.946 145.574 87.8416 147.048L86.3851 147.444L82.9112 142.401C80.943 141.694 79.3093 141.079 77.6659 140.577C76.8097 140.313 75.5008 139.844 75.0088 140.068C71.4266 141.701 66.3781 141.721 63.9769 144.695C63.1967 145.641 62.2006 146.5 61.0246 147.239C59.1943 148.321 58.0323 149.822 57.7672 151.45C56.9799 155.363 55.5234 159.216 54.2441 163.076C53.9518 163.672 53.4944 164.226 52.8959 164.708C52.8073 164.794 51.8232 164.629 51.8133 164.55C51.6108 163.882 51.6108 163.194 51.8133 162.527C53.7225 158.991 55.5825 155.481 54.3523 151.602C54.3012 151.322 54.3426 151.039 54.4736 150.771C54.6046 150.504 54.8219 150.259 55.1101 150.055C58.2494 148.112 58.2789 145.376 59.2729 142.897C59.4402 142.467 58.6234 141.859 57.8164 141.45C58.958 137.999 54.126 137.669 51.5771 136.036L48.0737 137.669C48.4182 136.149 51.2918 134.867 48.4674 133.591C46.7157 132.798 44.8655 132.104 42.6414 131.192C43.1729 129.989 42.0018 129.242 39.1872 129.473C38.5771 126.565 37.4552 123.888 33.2826 122.864C34.4786 122.039 35.5807 121.156 36.5793 120.22C36.7762 120.002 35.7428 119.275 34.8965 118.383C35.4378 115.593 34.8276 114.06 30.7337 114.205C32.8988 112.732 32.7708 111.879 29.4938 109.929C28.9328 111.859 28.4506 113.505 27.9979 115.071H13.1772V114.946L22.9101 113.882C26.5021 113.478 28.1258 111.172 27.4665 108.792C27.0039 107.14 26.3249 106.01 23.8548 105.924C21.9197 105.868 19.9864 106.059 18.1568 106.486C12.1242 107.92 6.1802 109.5 0 110.808C1.50512 110.369 2.97656 109.879 4.40881 109.341C7.81383 107.893 11.2976 106.486 14.4369 104.827C16.2575 103.868 19.9282 103.406 21.798 104.39C24.7503 105.93 26.0986 105.593 27.0532 103.273C27.2598 102.784 28.3915 102.394 29.2084 102.097C31.1766 101.39 33.2727 100.868 35.113 100.055C35.9298 99.6977 36.2251 98.812 36.9336 97.9528L30.5271 97.5695V97.0936H35.3393C34.4029 96.0105 33.3745 94.9644 32.2591 93.9607C30.9994 92.9693 31.1667 92.3017 32.8594 91.7664C35.4673 90.9336 36.5104 89.6513 35.8117 87.7015C35.674 87.3182 36.3923 86.7894 36.7269 86.3268C36.9828 85.9633 37.4552 85.6196 37.4945 85.2494C37.4157 84.3467 37.6375 83.4435 38.1441 82.6057C37.5339 82.0174 36.9238 81.4292 35.7527 80.3188L39.8367 80.7881C40.2402 79.2414 41.3227 77.6353 37.9374 76.9083C37.75 76.8402 37.6038 76.7304 37.5241 76.5977C36.4908 75.2229 35.4574 73.8415 34.2175 72.1693C36.2546 72.936 38.4491 73.4912 40.1812 74.476C42.3364 75.6591 44.3735 74.899 46.1941 74.476C47.0896 74.2579 47.3947 72.9294 47.8474 72.2685C49.0972 72.5395 50.7308 73.2004 52.3251 73.1607C54.8247 73.0946 57.2456 72.6518 59.7551 73.3722C60.1291 73.478 61.1427 72.7443 61.7233 72.3213C62.6484 71.6604 63.4652 70.9466 64.3312 70.2526C65.0988 71.1845 65.9353 72.0966 66.5848 73.0616C66.7126 73.5381 66.7126 74.026 66.5848 74.5025C69.6651 74.6016 69.0648 76.1548 69.0156 77.0074C71.5054 78.8118 74.5069 80.1337 75.3532 81.9183C75.8846 83.0088 76.2389 84.3902 77.4199 84.952C78.9846 85.6989 81.2284 85.9104 83.2261 86.0426C83.6591 86.0426 84.4661 84.8463 84.7908 84.1324C85.4305 82.6982 86.9854 82.6321 90.6955 84.1853L86.454 85.8773C86.7787 86.4061 87.1232 86.9415 87.3397 87.2785C86.3648 87.3977 85.4246 87.6208 84.5546 87.9395C84.3283 88.0717 84.9384 88.8979 85.1648 89.4002C86.021 89.149 87.133 89.0433 87.6939 88.6203C89.3571 87.3909 90.8136 86.036 92.4078 84.6546C93.4805 85.7782 93.8545 88.0717 96.7478 87.4966C97.7319 89.4795 98.5782 91.231 99.4934 93.0023C99.769 93.5311 100.596 94.0731 100.478 94.5291C99.8772 96.9019 102.948 96.6772 104.719 97.3183C105.054 97.4373 106.038 97.1531 106.303 96.8755C107.642 95.4412 108.537 93.7492 110.24 92.5595C111.096 91.958 113.31 92.2356 115.652 92.0572C115.406 91.3962 115.495 89.9223 114.56 89.5125C113.428 89.0102 111.431 89.3936 109.335 89.3936C111.086 88.6731 113.113 88.2832 113.645 87.4636C114.019 86.8754 112.484 85.6526 111.588 84.8198C110.568 83.9031 109.443 83.0412 108.222 82.2421C107.534 81.8383 106.796 81.4735 106.018 81.1516L105.998 81.2573Z" fill="white"/>
<path d="M149.506 124.864C152.055 124.864 154.535 124.818 157.015 124.864C160.164 124.944 166.413 128.42 165.734 130.344C165.104 132.122 162.535 133.754 160.302 135.043C158.589 136.034 156.631 135.413 154.397 134.64C149.27 132.888 147.99 130.727 150.077 127.257C150.46 126.556 149.673 125.519 149.506 124.864Z" fill="white"/>
<path d="M23.5005 103.503C22.3294 105.188 20.7647 106.378 17.5959 106.523C15.8835 106.603 14.2302 107.356 12.5474 107.845C11.455 108.143 10.3725 108.466 9.28015 108.784C9.15221 108.592 9.02428 108.407 8.90619 108.222L22.9396 102.994L23.5005 103.503Z" fill="white"/>
<path d="M95.0355 149.478C94.3204 154.18 93.6151 158.89 92.9197 163.609L91.6403 163.53C92.3686 158.842 93.1001 154.155 93.8349 149.472L95.0355 149.478Z" fill="white"/>
<path d="M115.761 159.174C115.574 161.197 115.495 163.226 115.121 165.228C115.033 165.678 113.921 166.041 113.291 166.444C112.986 165.896 112.307 165.275 112.444 164.812C113.173 162.875 114.157 160.978 115.043 159.075L115.761 159.174Z" fill="white"/>
<path d="M42.7893 63C43.9603 64.3814 44.9641 65.2142 45.2987 66.1527C45.407 66.4567 43.7734 67.045 42.927 67.4746C42.0472 66.7431 41.322 65.9335 40.7718 65.0688C40.575 64.6986 41.6969 64.0575 42.7893 63Z" fill="white"/>
<path d="M106.067 84.9104C101.294 84.9104 97.535 83.2316 93.7167 81.6586L94.2087 80.9249L106.018 84.9633L106.067 84.9104Z" fill="white"/>
<path d="M69.921 65.4586L68.1201 73.39L67.0474 73.2776L69.2617 65.3859L69.921 65.4586Z" fill="white"/>
<path d="M90.6562 84.798L94.9469 83.8925C95.065 84.2759 95.4094 84.9501 95.2815 84.9963C94.0022 85.4326 92.6441 85.7564 91.3451 86.1199L90.6562 84.798Z" fill="white"/>
<path d="M13.2659 123.483L5.92443 127.012C5.77681 126.874 5.61936 126.741 5.47174 126.609L12.5967 122.888L13.2659 123.483Z" fill="white"/>
<path d="M26.699 93.0002L30.911 94.0247C29.5923 94.6856 28.5 95.4457 28.2146 95.3466C27.3117 94.8679 26.5191 94.3022 25.8625 93.6678L26.699 93.0002Z" fill="white"/>
</svg>
