<svg xmlns="http://www.w3.org/2000/svg"  viewBox="0 0 64 64" width="64px" height="64px"><path d="M 7.0195312 4 C 5.2304679 4 3.805608 5.5890925 4.0214844 7.3652344 L 9.4882812 52.609375 C 9.730631 54.611882 11.161987 56.27744 13.107422 56.830078 L 30.642578 61.808594 C 31.525667 62.058948 32.462021 62.06481 33.349609 61.824219 L 51.791016 56.828125 C 53.79946 56.284327 55.273165 54.557728 55.480469 52.492188 L 60.029297 7.3046875 C 60.206348 5.5475668 58.79166 4 57.025391 4 L 7.0195312 4 z M 7.0195312 6 L 57.025391 6 C 57.649121 6 58.100011 6.5005893 58.039062 7.1054688 L 57.894531 8.5410156 A 1.0001 1.0001 0 0 0 56.984375 7.9863281 A 1.0001 1.0001 0 0 0 56 9 L 56 11 A 1.0001 1.0001 0 0 0 57.5625 11.839844 L 53.490234 52.291016 A 1.0001 1.0001 0 0 0 53.490234 52.292969 C 53.365538 53.535428 52.489086 54.568235 51.269531 54.898438 A 1.0001 1.0001 0 0 0 51.267578 54.898438 L 32.826172 59.894531 C 32.28976 60.039935 31.724364 60.036447 31.189453 59.884766 L 13.654297 54.90625 C 12.473732 54.570888 11.62026 53.572633 11.474609 52.369141 L 6.5878906 11.923828 A 1.0001 1.0001 0 0 0 8 11 L 8 9 A 1.0001 1.0001 0 0 0 6.984375 7.9863281 A 1.0001 1.0001 0 0 0 6.1660156 8.4355469 L 6.0078125 7.125 A 1.0001 1.0001 0 0 0 6.0078125 7.1230469 C 5.9336889 6.5131856 6.3885947 6 7.0195312 6 z M 11.984375 7.9863281 A 1.0001 1.0001 0 0 0 11 9 L 11 11 A 1.0001 1.0001 0 1 0 13 11 L 13 9 A 1.0001 1.0001 0 0 0 11.984375 7.9863281 z M 16.984375 7.9863281 A 1.0001 1.0001 0 0 0 16 9 L 16 11 A 1.0001 1.0001 0 1 0 18 11 L 18 9 A 1.0001 1.0001 0 0 0 16.984375 7.9863281 z M 21.984375 7.9863281 A 1.0001 1.0001 0 0 0 21 9 L 21 11 A 1.0001 1.0001 0 1 0 23 11 L 23 9 A 1.0001 1.0001 0 0 0 21.984375 7.9863281 z M 26.984375 7.9863281 A 1.0001 1.0001 0 0 0 26 9 L 26 11 A 1.0001 1.0001 0 1 0 28 11 L 28 9 A 1.0001 1.0001 0 0 0 26.984375 7.9863281 z M 31.984375 7.9863281 A 1.0001 1.0001 0 0 0 31 9 L 31 11 A 1.0001 1.0001 0 1 0 33 11 L 33 9 A 1.0001 1.0001 0 0 0 31.984375 7.9863281 z M 36.984375 7.9863281 A 1.0001 1.0001 0 0 0 36 9 L 36 11 A 1.0001 1.0001 0 1 0 38 11 L 38 9 A 1.0001 1.0001 0 0 0 36.984375 7.9863281 z M 41.984375 7.9863281 A 1.0001 1.0001 0 0 0 41 9 L 41 11 A 1.0001 1.0001 0 1 0 43 11 L 43 9 A 1.0001 1.0001 0 0 0 41.984375 7.9863281 z M 46.984375 7.9863281 A 1.0001 1.0001 0 0 0 46 9 L 46 11 A 1.0001 1.0001 0 1 0 48 11 L 48 9 A 1.0001 1.0001 0 0 0 46.984375 7.9863281 z M 51.984375 7.9863281 A 1.0001 1.0001 0 0 0 51 9 L 51 11 A 1.0001 1.0001 0 1 0 53 11 L 53 9 A 1.0001 1.0001 0 0 0 51.984375 7.9863281 z M 24 18 A 1.0001 1.0001 0 0 0 23 19 L 23 42.753906 C 20.405407 42.177244 17.81108 41.600233 15.216797 41.023438 A 1.0001 1.0001 0 0 0 14.005859 42.101562 L 14.621094 48.101562 A 1.0001 1.0001 0 0 0 15.341797 48.960938 C 19.803892 50.232965 24.264658 51.505371 28.726562 52.777344 A 1.0001 1.0001 0 0 0 30 51.814453 L 30 19 A 1.0001 1.0001 0 0 0 29 18 L 24 18 z M 35 18 A 1.0001 1.0001 0 0 0 34 19 L 34 41 A 1.0001 1.0001 0 0 0 35.224609 41.974609 C 37.769109 41.386695 40.313073 40.798196 42.857422 40.210938 L 42.679688 42.886719 C 40.033084 43.601846 37.385535 44.319284 34.738281 45.035156 A 1.0001 1.0001 0 0 0 34 46 L 34 52 A 1.0001 1.0001 0 0 0 35.275391 52.960938 C 39.519251 51.741977 43.763673 50.523727 48.007812 49.304688 A 1.0001 1.0001 0 0 0 48.728516 48.429688 L 50.058594 32.96875 A 1.0001 1.0001 0 0 0 48.939453 31.890625 C 46.293542 32.216545 43.646463 32.543069 41 32.869141 L 41 25.005859 C 43.938555 25.020219 46.877684 25.034468 49.816406 25.048828 A 1.0001 1.0001 0 0 0 50.816406 24.134766 L 51.251953 19.085938 A 1.0001 1.0001 0 0 0 50.255859 18 L 35 18 z M 25 20 L 28 20 L 28 50.490234 C 24.180069 49.401377 20.360876 48.313495 16.541016 47.224609 L 16.134766 43.277344 C 18.684337 43.843982 21.23393 44.409774 23.783203 44.976562 A 1.0001 1.0001 0 0 0 25 44 L 25 20 z M 36 20 L 49.166016 20 L 48.904297 23.044922 C 45.937795 23.030424 42.972517 23.014498 40.005859 23 A 1.0001 1.0001 0 0 0 39 24 L 39 34 A 1.0001 1.0001 0 0 0 40.123047 34.992188 C 42.736586 34.670361 45.348348 34.347381 47.960938 34.025391 L 46.794922 47.572266 C 43.196353 48.605796 39.598769 49.638357 36 50.671875 L 36 46.765625 C 38.630854 46.054193 41.260806 45.343303 43.890625 44.632812 A 1.0001 1.0001 0 0 0 44.626953 43.734375 L 44.943359 39 A 1.0001 1.0001 0 0 0 43.720703 37.958984 C 41.146782 38.552833 38.573767 39.147526 36 39.742188 L 36 20 z"/></svg>