<svg width="115" height="63" viewBox="0 0 115 63" fill="none" xmlns="http://www.w3.org/2000/svg">
<path d="M20.6538 36.4659C21.7391 37.7396 20.9895 38.5425 19.6547 38.994C17.8567 39.5706 16.0042 40.0648 14.1722 40.5844C9.867 41.7983 5.55947 43.0099 1.24963 44.2195C1.0571 44.2768 0.8112 44.2082 0.417902 43.8181L17.2924 37.3012L17.1696 36.8496L14.0016 36.768L13.9326 36.4237C16.6201 35.652 19.2817 34.7924 22.0077 34.1774C22.6767 34.0265 23.579 34.7099 24.3861 34.9674C24.8092 35.1557 25.2804 35.243 25.7524 35.2206C29.0317 34.5513 32.3049 33.8445 34.8302 31.6796C34.9957 31.5373 35.1972 31.4316 35.4184 31.3709C38.3676 30.6059 41.3363 29.91 44.2582 29.1069C46.3458 28.5588 48.3815 27.8699 50.3471 27.0462C50.7266 26.8754 50.5323 25.6246 50.5162 24.8767C50.5289 24.385 50.0705 23.7752 50.2774 23.4317C51.0157 22.2424 51.687 20.9018 52.8197 20.0589C54.9047 18.5056 53.92 17.4462 52.7408 16.5252L53.0786 13.8493L52.5296 13.7355C54.3277 12.0564 56.2577 10.4742 57.8471 8.65889C58.4005 8.05026 58.1206 6.82845 58.184 6.28818C59.3925 4.97387 60.4443 3.69915 61.6555 2.55309C63.3816 0.921984 65.8031 0.865976 68.0712 0.718815C69.3412 0.722062 70.6096 0.815102 71.864 0.997062C72.0749 0.989697 72.2851 1.02715 72.4768 1.10627C74.4813 2.40362 76.4717 3.7006 78.4338 4.99686C76.5556 5.66482 76.6792 6.63347 78.5373 7.84607C79.296 8.33899 79.6901 9.24608 80.3459 9.88584C81.7267 11.2232 84.8354 11.4091 86.7779 10.7179C87.7849 10.3576 89.1344 10.71 90.4002 10.7426L89.6584 7.67143C91.2938 8.4672 92.5294 8.84782 93.4379 9.5626C95.2549 10.9984 95.2422 12.8667 94.9982 14.9221C94.6618 17.8223 94.968 20.7701 97.2627 23.165C97.7796 23.7015 98.7582 23.8949 99.2056 24.1057C98.2463 25.9968 97.4074 27.9341 96.6928 29.9085C96.2131 31.5032 97.1307 32.6916 99.0606 33.3143C100.162 33.6728 101.09 34.4691 102.094 35.0679L101.741 35.8375C100.062 35.6634 98.3841 35.4022 96.7016 35.3402C95.8908 35.4126 95.096 35.5828 94.3393 35.8463C94.6526 36.5955 94.7339 37.5631 95.3226 38.0578C97.4003 39.8118 99.858 41.0959 100.583 43.9798C100.956 45.4469 102.893 46.6117 104.195 47.9907C102.999 49.9157 103.736 51.523 105.429 53.13C108.419 55.9663 111.23 58.9413 114.105 61.8743C114.281 62.1634 114.409 62.4729 114.485 62.7934C112.267 63.4651 111.453 62.0925 110.414 60.9633C106.719 56.8818 103.06 52.7638 99.1634 48.839C97.9296 47.5615 96.0238 46.8273 94.3629 45.925C94.0769 45.7681 93.5179 46.0403 93.0785 46.0663C92.2705 46.1203 91.2432 46.4426 90.6782 46.1229C88.104 44.6925 86.1384 46.006 84.7717 46.5937L82.5788 50.9659C82.1571 50.2003 81.6748 49.4615 81.1356 48.7549C80.7022 48.2704 80.0483 47.5622 79.5521 47.593C78.7674 47.7468 78.0695 48.1361 77.5778 48.6945C77.1527 49.183 76.8925 49.7676 76.8268 50.3818C76.5471 52.4488 75.4082 52.4382 73.6465 51.6018C72.7778 51.215 71.7758 51.136 70.8475 51.381C69.9193 51.6261 69.1358 52.1766 68.6593 52.9185C68.2107 53.5796 67.1078 54.6413 66.884 54.5359C65.7236 54.0028 64.6859 53.283 63.8252 52.4141C62.7314 51.1803 61.7134 49.8962 60.7753 48.5672L59.0731 51.4696C58.7191 50.9248 58.5002 50.6326 58.3313 50.3231C57.8393 49.3699 57.3312 48.7651 56.1518 49.7749C55.081 50.6879 53.9477 50.7334 53.6401 49.2119C53.188 46.9829 52.935 44.7153 52.6535 42.4595C52.6212 41.8365 52.6373 41.2126 52.7015 40.5921C52.3872 40.4345 52.2491 40.3001 52.1284 40.3157C47.5219 40.8636 47.2443 40.3769 48.7279 36.3477C49.2223 35.0088 49.1532 33.02 48.3326 31.9089C47.2934 30.4993 45.3594 29.7581 43.0237 30.6074C38.5664 32.2305 34.0482 33.7461 29.4653 35.0234C26.7445 35.7133 23.8018 35.949 20.6538 36.4659Z" fill="#000C24"/>
</svg>
