<svg width="116" height="63" viewBox="0 0 116 63" fill="none" xmlns="http://www.w3.org/2000/svg">
<path d="M21.1743 36.4664C22.2596 37.7401 21.5101 38.543 20.1752 38.9944C18.3772 39.571 16.5247 40.0653 14.6927 40.5849C10.3875 41.7987 6.07997 43.0104 1.77014 44.22C1.57761 44.2773 1.33171 44.2087 0.93841 43.8186L17.8129 37.3017L17.6901 36.8501L14.5221 36.7685L14.4531 36.4242C17.1407 35.6525 19.8022 34.7929 22.5282 34.1779C23.1972 34.027 24.0995 34.7104 24.9066 34.9679C25.3297 35.1562 25.8009 35.2435 26.2729 35.2211C29.5522 34.5518 32.8254 33.845 35.3507 31.6801C35.5162 31.5378 35.7177 31.432 35.9389 31.3714C38.8881 30.6064 41.8568 29.9105 44.7787 29.1074C46.8663 28.5593 48.902 27.8704 50.8676 27.0467C51.2471 26.8759 51.0528 25.6251 51.0367 24.8772C51.0494 24.3855 50.591 23.7757 50.7979 23.4322C51.5362 22.2429 52.2075 20.9023 53.3402 20.0594C55.4252 18.5061 54.4405 17.4467 53.2613 16.5257L53.5991 13.8498L53.0501 13.736C54.8482 12.0569 56.7782 10.4746 58.3676 8.65938C58.921 8.05075 58.6411 6.82893 58.7045 6.28866C59.913 4.97436 60.9648 3.69963 62.176 2.55358C63.9021 0.922474 66.3236 0.866465 68.5918 0.719301C69.8617 0.72255 71.1301 0.815591 72.3845 0.997552C72.5954 0.990184 72.8056 1.02764 72.9973 1.10675C75.0018 2.4041 76.9922 3.70109 78.9543 4.99735C77.0761 5.66531 77.1997 6.63396 79.0578 7.84656C79.8165 8.33948 80.2106 9.24657 80.8664 9.88633C82.2472 11.2237 85.3559 11.4096 87.2984 10.7184C88.3054 10.3581 89.6549 10.7105 90.9207 10.7431L90.1789 7.67191C91.8143 8.46769 93.0499 8.84831 93.9584 9.56309C95.7754 10.9989 95.7627 12.8672 95.5187 14.9226C95.1823 17.8228 95.4885 20.7706 97.7832 23.1655C98.3001 23.702 99.2787 23.8954 99.7262 24.1062C98.7668 25.9973 97.9279 27.9346 97.2134 29.909C96.7336 31.5037 97.6512 32.6921 99.5811 33.3148C100.683 33.6733 101.611 34.4695 102.614 35.0684L102.262 35.838C100.582 35.6639 98.9047 35.4027 97.2221 35.3407C96.4114 35.4131 95.6165 35.5833 94.8598 35.8467C95.1731 36.596 95.2544 37.5636 95.8431 38.0583C97.9208 39.8123 100.379 41.0964 101.104 43.9803C101.477 45.4474 103.414 46.6122 104.716 47.9911C103.52 49.9162 104.257 51.5235 105.949 53.1305C108.94 55.9668 111.75 58.9418 114.626 61.8748C114.801 62.1638 114.929 62.4734 115.005 62.7939C112.787 63.4656 111.974 62.093 110.934 60.9638C107.239 56.8823 103.581 52.7643 99.6839 48.8395C98.4501 47.562 96.5443 46.8278 94.8834 45.9255C94.5974 45.7686 94.0384 46.0408 93.599 46.0668C92.791 46.1208 91.7637 46.4431 91.1988 46.1234C88.6245 44.693 86.6589 46.0065 85.2922 46.5942L83.0993 50.9664C82.6776 50.2008 82.1953 49.462 81.6561 48.7554C81.2228 48.2709 80.5688 47.5627 80.0726 47.5935C79.2879 47.7473 78.59 48.1366 78.0983 48.695C77.6732 49.1835 77.413 49.7681 77.3473 50.3823C77.0677 52.4493 75.9287 52.4387 74.167 51.6023C73.2984 51.2155 72.2963 51.1364 71.368 51.3815C70.4398 51.6266 69.6563 52.177 69.1798 52.919C68.7312 53.5801 67.6283 54.6418 67.4046 54.5363C66.2441 54.0033 65.2065 53.2835 64.3457 52.4146C63.2519 51.1808 62.2339 49.8966 61.2958 48.5677L59.5936 51.47C59.2397 50.9253 59.0207 50.6331 58.8518 50.3235C58.3598 49.3703 57.8517 48.7655 56.6723 49.7754C55.6015 50.6884 54.4682 50.7339 54.1606 49.2124C53.7085 46.9833 53.4556 44.7158 53.174 42.46C53.1417 41.837 53.1578 41.2131 53.222 40.5926C52.9077 40.435 52.7696 40.3006 52.6489 40.3162C48.0424 40.8641 47.7648 40.3774 49.2484 36.3482C49.7428 35.0093 49.6737 33.0205 48.8532 31.9093C47.8139 30.4998 45.8799 29.7586 43.5442 30.6079C39.0869 32.231 34.5687 33.7466 29.9859 35.0239C27.265 35.7138 24.3224 35.9494 21.1743 36.4664Z" fill="white"/>
</svg>
